<?xml version="1.0" standalone="no"?>
<!DOCTYPE svg PUBLIC "-//W3C//DTD SVG 20010904//EN"
 "http://www.w3.org/TR/2001/REC-SVG-20010904/DTD/svg10.dtd">
<svg version="1.0" xmlns="http://www.w3.org/2000/svg"
 width="160.000000pt" height="160.000000pt" viewBox="0 0 160.000000 160.000000"
 preserveAspectRatio="xMidYMid meet">
<metadata>
Created by potrace 1.14, written by Peter Selinger 2001-2017
</metadata>
<g transform="translate(0.000000,160.000000) scale(0.100000,-0.100000)"
fill="#000000" stroke="none">
<path d="M395 1580 c-4 -6 -1 -10 5 -10 6 0 33 -15 61 -34 l51 -34 -41 -23
c-37 -20 -47 -42 -18 -38 7 1 24 1 39 0 l27 -1 -19 -33 c-40 -67 -51 -166 -37
-337 3 -40 -2 -52 -45 -114 -88 -127 -135 -324 -134 -559 1 -156 14 -173 81
-109 18 16 105 40 105 28 0 -3 -9 -21 -21 -41 -20 -33 -20 -37 -5 -60 9 -14
26 -26 39 -26 12 -1 42 -3 67 -5 25 -1 48 -3 53 -3 15 -2 6 -29 -18 -55 -21
-23 -30 -25 -63 -20 -39 6 -122 -11 -122 -25 0 -4 13 -6 29 -3 16 2 32 -1 35
-7 4 -6 37 -11 77 -11 38 0 69 -4 69 -9 0 -21 29 -38 57 -34 22 4 29 10 29 26
-1 20 4 22 61 23 35 1 69 6 76 13 8 6 16 8 19 5 4 -3 28 -7 55 -9 26 -2 64 -9
82 -14 27 -8 40 -7 58 4 12 8 31 15 43 15 11 0 25 9 32 20 9 14 19 18 38 14
24 -5 24 -5 6 10 -14 11 -33 13 -75 9 -93 -9 -157 -5 -190 11 -26 14 -31 23
-31 51 0 30 5 37 40 55 38 19 55 38 89 100 9 16 57 72 107 124 131 137 139
156 139 341 l0 150 34 70 c48 96 50 168 10 285 -16 47 -31 93 -34 102 -2 9
-11 27 -19 40 -15 24 -15 24 50 56 37 18 64 35 61 38 -6 7 -125 6 -154 -1 -13
-3 -32 -7 -44 -10 -12 -2 -27 -9 -35 -16 -9 -7 -27 -9 -51 -4 -21 4 -97 9
-169 10 -88 2 -148 8 -180 19 -27 8 -60 18 -74 20 -14 3 -25 5 -25 6 0 8 -216
7 -220 0z m401 -1355 c40 -61 8 -123 -56 -111 -61 10 -84 46 -60 91 23 44 93
55 116 20z"/>
</g>
</svg>
